<svg id="Capa_1" data-name="Capa 1" xmlns="http://www.w3.org/2000/svg" viewBox="0 0 1920 1080">
<defs><style>.cls-1{fill:#010101;}.cls-2{opacity:0.1;}.cls-3{fill:#fff;fill-rule:evenodd;}</style></defs><rect class="cls-1" width="1920" height="1080"/><g class="cls-2"><path class="cls-3" d="M666.09,531.2,627.66,661.12c-16.75,56.63-56.8,105.42-112,136.48l-309.51,174-81.73-73.56L317.75,619.51c34.51-49.71,88.72-85.76,151.65-100.83l144.35-34.59c22.83-5.46,46.26,6.76,52.34,27.3A34.79,34.79,0,0,1,666.09,531.2ZM564.43,575.59l-73,17.49c-42,10-78.1,34.08-101.1,67.22L257.13,852.16,470.3,732.3c36.82-20.71,63.52-53.23,74.69-91ZM256.66,1003,470.54,887.51V926c0,85-76.61,154-171.11,154H256.66ZM85.55,849H0v-38.5c0-85,76.61-154,171.1-154h42.78Z"/></g></svg>