<svg id="Capa_1" data-name="Capa 1" xmlns="http://www.w3.org/2000/svg" viewBox="0 0 1200 1200"><defs><style>.cls-1{fill:#fff;fill-rule:evenodd;}</style></defs><rect width="1200" height="1200"/><path class="cls-1" d="M987.78,275.62,942.94,444.05A299.49,299.49,0,0,1,812.22,621L451.06,846.64l-95.38-95.38L581.32,390.11A299.48,299.48,0,0,1,758.27,259.38l168.44-44.84a49.92,49.92,0,0,1,61.07,61.08ZM869.15,333.17,784,355.85A199.65,199.65,0,0,0,666,443L510.58,691.75,759.32,536.34a199.61,199.61,0,0,0,87.15-118ZM510,887.32,759.6,737.58v49.91c0,110.27-89.39,199.66-199.66,199.66H510ZM310.37,687.66H210.54V637.75c0-110.27,89.39-199.66,199.66-199.66h49.91Z"/></svg>