<svg xmlns="http://www.w3.org/2000/svg" viewBox="0 0 460.47 118.6"><defs><style>.cls-1,.cls-2{fill:#fff;}.cls-2{fill-rule:evenodd;}</style></defs><g id="Capa_2" data-name="Capa 2"><g id="Capa_2-2" data-name="Capa 2"><path class="cls-1" d="M147.89,54.94a28.76,28.76,0,0,1-12.95-6.6l3.6-4.09A23.44,23.44,0,0,0,149,49.69a13.45,13.45,0,0,0,8.44-.68,6.9,6.9,0,0,0,4.34-6.29c0-4.59-4.89-6.24-9.66-7.15-.43-.06-7.27-1.47-10-3.06A10.74,10.74,0,0,1,136.47,23a11.19,11.19,0,0,1,2-6.3,13.63,13.63,0,0,1,5.14-4.09A17.26,17.26,0,0,1,154,11.3a25,25,0,0,1,11.55,5.5L162,21c-6.29-5.19-12.4-5.32-16.07-3.61a6.29,6.29,0,0,0-4,5.51c0,4.15,3.54,5.74,9.16,7,2.33.55,7.16,1.35,10,3a10.85,10.85,0,0,1,6.05,9.84,11.7,11.7,0,0,1-2.08,6.84,14.22,14.22,0,0,1-5.44,4.34,15.93,15.93,0,0,1-7.39,1.53A21.36,21.36,0,0,1,147.89,54.94Z"/><path class="cls-1" d="M201.92,41a14.6,14.6,0,0,1-14.67,14.6,15.05,15.05,0,0,1-9.41-3.85V71h-5.26V27h5.26v3.24a15.05,15.05,0,0,1,9.41-3.85A14.61,14.61,0,0,1,201.92,41Zm-5.25,0a9.42,9.42,0,1,0-9.42,9.47A9.47,9.47,0,0,0,196.67,41Z"/><path class="cls-1" d="M229.91,27h5.26V55h-5.26V51.76a15.05,15.05,0,0,1-9.41,3.85,14.61,14.61,0,1,1,0-29.21,15.05,15.05,0,0,1,9.41,3.85Zm0,14a9.41,9.41,0,1,0-9.41,9.47A9.47,9.47,0,0,0,229.91,41Z"/><path class="cls-1" d="M244.64,45.71V32h-4.16V27h4.16V16.19h5.25V27h8.62v5h-8.62V45.59a4.47,4.47,0,0,0,4.16,4.4h4.71l1.34,5h-6.17A9.24,9.24,0,0,1,244.64,45.71Z"/><path class="cls-1" d="M265.11,19A3.46,3.46,0,0,1,272,19a3.46,3.46,0,1,1-6.91,0Zm.86,8h5.25V55H266Z"/><path class="cls-1" d="M302,27h5.25V55H302V51.76a15.06,15.06,0,0,1-9.42,3.85,14.61,14.61,0,1,1,0-29.21A15.06,15.06,0,0,1,302,30.25Zm0,14a9.42,9.42,0,1,0-9.42,9.47A9.47,9.47,0,0,0,302,41Z"/><path class="cls-1" d="M315,55V10.14h5.26V55Z"/><path class="cls-1" d="M220.29,96.14l4.29,3.19a22.62,22.62,0,0,1-18.21,9.13A22.84,22.84,0,1,1,224.64,72l-4.35,3.19a17.13,17.13,0,0,0-13.92-7,17.44,17.44,0,1,0,13.92,28Z"/><path class="cls-1" d="M253,79.71h5.27v28.08H253v-3.25a15,15,0,0,1-9.44,3.86,14.65,14.65,0,1,1,0-29.3A15,15,0,0,1,253,83Zm0,14a9.44,9.44,0,1,0-9.44,9.5A9.5,9.5,0,0,0,253,93.75Z"/><path class="cls-1" d="M266.08,107.79v-45h5.27v45Z"/><path class="cls-1" d="M303.9,102.39a20.17,20.17,0,0,1-1.53,1.78,14.88,14.88,0,0,1-20.78,0,14.8,14.8,0,0,1,0-20.84,14.88,14.88,0,0,1,20.78,0,12.51,12.51,0,0,1,1.47,1.72l-4.23,3.12a9.45,9.45,0,1,0-7.6,15.08,9.36,9.36,0,0,0,7.6-4Z"/><path class="cls-1" d="M309.67,95.77V79.71h5.27V95.77a7.73,7.73,0,0,0,15.45,0V79.71h5.27V95.77a12.51,12.51,0,0,1-3.86,9,13.41,13.41,0,0,1-18.33,0A12.42,12.42,0,0,1,309.67,95.77Z"/><path class="cls-1" d="M342.71,107.79v-45H348v45Z"/><path class="cls-1" d="M377.59,79.71h5.27v28.08h-5.27v-3.25a15.09,15.09,0,0,1-9.44,3.86,14.65,14.65,0,1,1,0-29.3A15.09,15.09,0,0,1,377.59,83Zm0,14a9.44,9.44,0,1,0-9.44,9.5A9.5,9.5,0,0,0,377.59,93.75Z"/><path class="cls-1" d="M392.36,98.47V84.74h-4.17v-5h4.17V68.86h5.28V79.71h8.64v5h-8.64V98.35a4.47,4.47,0,0,0,4.16,4.41h4.72l1.35,5h-6.19A9.28,9.28,0,0,1,392.36,98.47Z"/><path class="cls-1" d="M439.38,93.75a14.75,14.75,0,0,1-14.71,14.71,14.68,14.68,0,1,1,0-29.36,14.65,14.65,0,0,1,14.71,14.65Zm-5.27,0a9.44,9.44,0,1,0-9.44,9.44A9.39,9.39,0,0,0,434.11,93.75Z"/><path class="cls-1" d="M450.23,82.59c1.78-2,7-3.49,10.24-3.49l-1.29,5.27a8.71,8.71,0,0,0-8.95,8.46v15H445V79.71h5.27Z"/><path class="cls-1" d="M59.3,6A53.3,53.3,0,1,1,6,59.3,53.36,53.36,0,0,1,59.3,6m0-6a59.3,59.3,0,1,0,59.3,59.3A59.3,59.3,0,0,0,59.3,0Z"/><path class="cls-2" d="M84.37,42.48,80.66,56.41A24.76,24.76,0,0,1,69.85,71.05L40,89.71l-7.89-7.89L50.75,52A24.73,24.73,0,0,1,65.39,41.14l13.93-3.71a4.13,4.13,0,0,1,5.05,2.92A4.05,4.05,0,0,1,84.37,42.48Zm-9.81,4.76-7,1.87a16.54,16.54,0,0,0-9.76,7.21L44.9,76.9,65.47,64a16.48,16.48,0,0,0,7.21-9.75ZM44.86,93.07,65.5,80.69v4.13A16.52,16.52,0,0,1,49,101.33H44.86ZM28.34,76.56H20.09V72.43A16.51,16.51,0,0,1,36.6,55.92h4.13Z"/></g></g></svg>